<svg version="1" xmlns="http://www.w3.org/2000/svg" width="2534.667" height="2534.667" viewBox="0 0 1901.000000 1901.000000"><path d="M941.5 1.1c-18.3 3-37.6 17.9-55.1 42.4-11.3 15.9-16.3 22.7-17.7 23.9-.7.6-3.4 4.3-6.1 8.3-2.7 4-5.7 8.1-6.7 9.2-1.1 1.1-1.9 2.3-1.9 2.6 0 .3-.8 1.4-1.7 2.4-1 1-3.6 4.4-5.8 7.5-2.2 3-4.3 5.5-4.7 5.6-.5 0-.8.6-.8 1.4 0 .8-.7 1.6-1.5 2-.8.3-1.5 1.2-1.5 2.1 0 .8-.4 1.5-1 1.5-.5 0-1 .4-1 1 0 .5-.8 1.9-1.7 2.9-2.1 2.3-2.3 2.5-8.8 11.1-2.6 3.6-5.6 7.2-6.4 8.1-.9.9-2.3 2.7-3.1 3.9-.8 1.3-2.2 3-3 3.9-.8.9-5 6.2-9.3 11.8-4.3 5.6-9.1 11.5-10.6 13s-5.8 6.7-9.6 11.5c-3.7 4.9-7.2 8.8-7.7 8.8-.4 0-.8.7-.8 1.5s-.9 2-2 2.7c-1.1.7-2 1.7-2 2.3 0 .6-.9 1.7-2 2.5s-2 2-2 2.6c0 .7-.4 1.4-.9 1.6-.4.1-4.1 4.1-8.1 8.8-4 4.7-7.7 8.6-8.1 8.8-.5.2-.9 1-.9 1.7 0 .8-1.1 2.2-2.5 3.3-1.4 1.1-2.5 2.3-2.5 2.6 0 .4-1 1.7-2.3 2.9-1.2 1.2-7.2 7.9-13.1 14.9-6 7.1-11.3 12.8-11.7 12.8-.5 0-.9.5-.9 1.1 0 .7-1.1 2.1-2.3 3.3-1.3 1.1-5.9 6.1-10.2 11.1-4.3 4.9-9.3 10.6-11.1 12.5-1.8 1.9-5 5.4-7.1 7.6-2.1 2.3-5.6 6.1-7.8 8.5-2.2 2.4-8.9 9.8-14.9 16.4-22.5 24.6-96.2 98.8-129.6 130.4-10.7 10.1-22.7 21.4-26.6 25.2-3.9 3.8-7.4 6.9-7.7 6.9-.4 0-3 2.4-5.9 5.4-2.9 2.9-6.1 5.7-7 6.2-.9.5-4.3 3.4-7.5 6.4-9 8.5-38.7 34.8-59.8 52.9-10.4 8.9-19.9 17-21 17.9-7.6 6.6-13.3 11.2-13.9 11.2-.4 0-1.7 1-2.9 2.3-1.2 1.2-4.2 3.8-6.7 5.7-2.5 1.9-5 3.9-5.6 4.5-.6.5-2.9 2.3-5 4-2.1 1.6-4.5 3.7-5.4 4.5-.8.8-3.1 2.6-5 4-1.9 1.3-5.2 4.1-7.4 6.2-2.1 2.1-4.4 3.8-5 3.8-.6 0-1.8.9-2.6 2s-1.9 2-2.5 2c-.5 0-2.8 1.7-5 3.7s-5.3 4.6-7 5.8c-6.9 4.7-13.5 10-13.5 10.7 0 .4-.6.8-1.2.8-.7 0-2.6 1.3-4.3 2.8-4.5 4.1-10.8 8.8-12.7 9.5-1 .4-1.8 1.1-1.8 1.7 0 .5-.7 1-1.5 1s-1.5.4-1.5.9c0 1.1-9.5 8.1-11 8.1-.6 0-1 .4-1 .9s-1.7 2-3.7 3.2c-2.1 1.3-4.2 2.9-4.6 3.6-.4.7-1.2 1.3-1.7 1.3s-2.3 1.3-4 2.9c-1.8 1.6-4.4 3.5-5.8 4.2-1.5.8-3.1 2-3.5 2.6-.4.7-1.4 1.3-2.2 1.3-.7 0-1.5.3-1.7.8-.7 1.6-18.1 14.2-19.7 14.2-.5 0-1.1.4-1.3.8-.4 1.2-14.5 11.2-44.8 31.7-9.6 6.5-20.3 13.8-23.7 16.2-3.5 2.4-6.7 4.3-7.3 4.3-.5 0-1 .4-1 1 0 .5-.7 1-1.5 1s-1.5.4-1.5.9-1 1.3-2.2 1.7c-1.3.4-2.7 1.2-3.3 1.9-.5.7-2.6 2.1-4.5 3.1-1.9 1.1-3.7 2.1-4 2.4-1.3 1.3-38.7 25-39.5 25-.2 0-4.4 2.7-9.3 6-5 3.3-9.3 6-9.7 6-1.6 0-16.6 11.9-22.2 17.6-6.7 6.9-11.3 15.4-13.2 24.2-1.4 6.8-1.4 23.1 0 30.8.6 3.2 1.2 6.3 1.3 6.9.1.5.7 2 1.4 3.2.7 1.2 1.2 2.9 1.2 3.7 0 .9.3 1.6.8 1.6.4 0 1.9 1.9 3.4 4.3 5.3 8.3 20.6 21 35.3 29.1 3.2 1.7 3.6 2 12.5 7.6 3 1.9 6.7 4.1 8.2 4.9 1.5.8 3.6 2.2 4.6 3.1 1 1 2.8 2.1 4 2.4 1.2.4 2.2 1.2 2.2 1.7s.4.9.9.9c.9 0 6.5 3.6 42.7 27.5 12.5 8.2 23.4 15.4 24.3 16 .8.5 3.9 2.7 6.8 4.7 2.9 2.1 5.5 3.8 5.9 3.8.6 0 7.8 5.4 10.2 7.7.7.7 1.7 1.3 2.1 1.3.4 0 2.1 1.1 3.7 2.5s3.2 2.5 3.6 2.5c.5 0 1.6.7 2.5 1.6 1 .9 10.4 7.7 20.8 15.2 46.9 33.4 103.5 77 147.3 113.5 8.4 7 15.7 12.7 16.3 12.7.5 0 .9.4.9.8 0 .5 5.3 5.3 11.8 10.8 6.4 5.4 12.2 10.4 12.7 11 .6.6 3.7 3.3 7 5.9 6 4.8 9 7.5 14.6 12.8 1.7 1.5 3.3 2.7 3.7 2.7.4 0 2.5 1.8 4.7 3.9 2.2 2.2 8.7 8.2 14.5 13.3 5.7 5.1 17.4 15.8 25.9 23.7 8.5 7.9 16.7 15.2 18.3 16.4 3.9 2.9 3.5 3.5-1.9 2.6-7.4-1.2-7.3-1.3-7.3 3.1 0 3.9-.1 4-3.5 4-3.3 0-3.5.2-3.5 3.5 0 3.4-.1 3.5-4 3.5h-4v4c0 3.8-.2 4-3 4-2.3 0-3 .4-3 2 0 1.5-.7 2-2.5 2-2.3 0-2.5.4-2.5 4.1 0 3.2-.4 4.2-2 4.6-1.1.3-2 1.4-2 2.4 0 1.3-.9 1.9-3.2 2.1-2.9.3-3.3.7-3.6 3.5-.3 3.1-.6 3.3-4.3 3.3-3.7 0-3.9.2-3.9 3 0 2.3-.4 3-2 3-1.5 0-2 .7-2 2.5 0 2.1-.5 2.5-3 2.5-2.3 0-3 .4-3 2 0 1.1-.7 2-1.5 2s-1.5.9-1.5 2c0 1.3-.7 2-2 2-1.6 0-2 .7-2 3 0 2.7-.3 3-3 3-2.5 0-3 .4-3 2.5 0 2-.5 2.5-2.4 2.5-2.1 0-2.5.6-2.8 3.3-.2 2.6-.8 3.3-3 3.5-1.9.2-2.8 1-3 2.5-.3 1.9-1 2.2-4.6 2.3-2.8 0-4.9.8-6.5 2.2-2.2 2-2.6 2.1-15.4 1-7.3-.7-13.5-1-13.7-.7-.3.2-.6 3.3-.8 6.9l-.3 6.4 30 2.8c16.5 1.5 44.6 4.1 62.5 5.8 17.9 1.6 49.6 4.6 70.5 6.6 20.9 1.9 52 4.8 69 6.4 30.1 2.9 92.4 8.7 101.5 9.5 2.5.2 7 .6 10 1 3 .3 18.1 1.7 33.5 3 15.4 1.4 29.8 2.8 32 3 2.2.3 16.6 1.6 32 3 39.7 3.7 44.9 4.2 51.7 5.1 4.5.5 4.8.8 8.5 7.1 4.6 8 13.7 16.3 23.6 21.6 7.5 4 18.7 8.1 24.7 9.2 1.9.3 5.2 1 7.3 1.4 2.1.5 3.7.5 3.7 0s1.4-.9 3-.9c1.7 0 3-.5 3-1 0-1.3 3.7-1.3 4.4-.1.7 1 2.6.9 10.6-.9 14.7-3.2 29.6-10.2 38-17.8 3-2.7 6.5-5.2 7.6-5.6 1.2-.4 3.7-3.1 5.5-6.1 1.9-3 3.9-5.5 4.6-5.5.6 0 1.9-.8 2.9-1.7 1-1 2.5-1.9 3.3-2 1.5-.1 56.2-5.3 62.6-5.8 1.7-.2 15.8-1.5 31.5-2.9 15.7-1.5 30.3-2.9 32.5-3.1 5.4-.6 9.7-1 48-4.5 18.2-1.7 47.4-4.4 65-6 17.6-1.7 48.7-4.6 69-6.5 20.4-1.9 51.2-4.8 68.5-6.4 17.3-1.6 46.6-4.4 65-6.1 18.4-1.7 34.9-3.3 36.5-3.4 1.7-.2 4.5-.4 6.3-.5l3.2-.1v-6.4c0-3.6-.4-6.7-.8-7-.5-.3-6.6 0-13.6.6-12.3 1.1-12.7 1-15-1.1-1.6-1.5-3.5-2.1-6.9-2.1-4.3 0-4.7-.2-4.7-2.5 0-2.1-.5-2.5-3-2.5-2.8 0-3-.3-3-3.5s-.2-3.5-3-3.5c-2.5 0-3-.4-3-2.5 0-2-.5-2.5-2.5-2.5-2.1 0-2.5-.5-2.5-3 0-2.3-.4-3-2-3-1.1 0-2-.7-2-1.5 0-.9-.7-1.8-1.5-2.1-.8-.4-1.5-1.2-1.5-2 0-.9-1.1-1.4-3-1.4-2.5 0-3-.4-3-2.5 0-1.8-.5-2.5-2-2.5-1.6 0-2-.7-2-3.5 0-3.5 0-3.5-4.5-3.5-4.4 0-4.4 0-3.8-3 .5-2.9.4-3-3.1-3-3.2 0-3.6-.3-3.6-2.5 0-1.8-.5-2.5-2-2.5-1.7 0-2-.7-2-4 0-3.6-.2-4-2.5-4-2 0-2.5-.5-2.5-2.4 0-2-.6-2.5-3.2-2.8-2.9-.3-3.2-.6-3.3-3.8 0-3.3-.2-3.5-3.7-3.8-3.3-.3-3.7-.6-4-3.5-.3-2.8-.7-3.2-3.5-3.5-3-.3-3.3-.6-3.3-3.8v-3.4h-11.4l3-3.1c3.5-3.8 31.5-29.6 47.4-43.8 6.3-5.6 13-11.6 14.7-13.2 1.8-1.6 3.5-2.9 3.8-2.9.4 0 1.8-1.3 3.3-2.9 1.5-1.6 5.4-5 8.7-7.6 3.3-2.7 6.7-5.5 7.6-6.4.8-.9 3.7-3.4 6.4-5.6 13-10.7 17.5-14.7 17.5-15.6 0-.5.5-.9 1.1-.9.5 0 11-8.2 23.2-18.3 24.4-20.1 46.1-37.5 61.3-49.1 26.2-20.1 57.1-43.2 64-47.9 2.2-1.5 4.9-3.5 6-4.5 1-1 3.6-2.8 5.7-4.1 2-1.2 3.7-2.7 3.7-3.2s.6-.9 1.4-.9c.7 0 2.5-1.1 4-2.5s2.9-2.5 3.2-2.5c.5 0 7.7-5 18-12.8 2.4-1.7 4.9-3.2 5.4-3.2.6 0 1-.5 1-1 0-.6.6-1 1.4-1 .8 0 1.6-.6 1.9-1.3.2-.7 2.2-2.1 4.3-3.2 2.2-1.1 4.4-2.5 4.9-3.2 1-1.1 24.9-17 60.9-40.6 9-5.9 16.9-10.7 17.5-10.7.6 0 1.1-.5 1.1-1 0-.6.7-1 1.5-1s1.5-.4 1.5-.8c0-.5 2.1-2.1 4.8-3.6 2.6-1.5 7.9-4.7 11.7-7.1 3.9-2.5 7.7-4.8 8.5-5.1.8-.4 6.5-4 12.5-7.9 16-10.4 24.7-19.7 29.5-31.5 1.2-3 2.6-6.2 3-7.1 1.1-2.1 1-33.8-.2-34.5-.4-.3-.8-1.2-.8-2.1 0-1.4-1.4-5-4.3-11-.5-1.3-1.8-3.2-2.9-4.2-1-1.1-1.8-2.3-1.8-2.6 0-1.6-14.8-14-24.4-20.4-13.3-8.8-28.6-18.1-29.8-18.1-.4 0-.8-.4-.8-.8s-2.6-2.3-5.7-4.2c-5.8-3.4-17.1-10.6-31.3-19.8-13.7-8.8-59.1-39.6-73.2-49.6-3.1-2.3-9-6.4-12.9-9.1-10.5-7.2-47.5-34.3-60.5-44.3-3.4-2.6-7.4-5.6-9-6.7-1.5-1.1-3.6-2.8-4.6-3.8-1-.9-2-1.7-2.3-1.7-.5 0-3.9-2.7-6.4-5.1-.9-.8-3.8-3.1-6.6-5-6.5-4.5-8.4-6-10.9-8.5-1.2-1.1-2.9-2.3-3.8-2.7-1-.3-1.8-1.1-1.8-1.7 0-.5-.7-1-1.5-1-.7 0-1.8-.6-2.2-1.3-.4-.7-2.9-2.8-5.5-4.6-2.6-1.9-4.9-4-5.2-4.7-.3-.8-1.1-1.4-1.8-1.4-.8 0-2.1-.8-3-1.8-3.3-3.5-6.6-6.2-7.7-6.2-.6 0-1.1-.4-1.1-.8s-1.2-1.5-2.7-2.4c-1.6-1-4.7-3.4-6.9-5.5-2.3-2.1-5.6-4.9-7.4-6.3-1.8-1.4-6.5-5.3-10.5-8.6-4-3.4-7.9-6.6-8.7-7.2-.7-.6-2.9-2.4-4.8-4-11.1-9-62.8-54.2-73.2-64.1-3.1-2.9-6.7-6-8-6.9-1.3-.9-4.5-3.8-7.1-6.4-2.7-2.6-5-4.8-5.2-4.8-1.1 0-52.1-48.6-82-78.2-13.2-13-25.2-24.8-26.7-26.2-1.6-1.4-2.8-2.6-2.8-2.8 0-.3-35.2-36.7-38-39.3-.6-.6-7.9-8.4-16.2-17.5-15.9-17.2-17-18.4-29.3-31.5-4.1-4.4-7.5-8.3-7.5-8.6 0-.4-1.9-2.6-4.3-5-7.6-7.8-21.3-23.2-28.7-32.2-4-4.8-7.7-8.7-8.1-8.7-.5 0-.9-.6-.9-1.3 0-.7-1.2-2.4-2.7-3.8-3.2-2.9-8.9-9.5-16.3-18.9-2.9-3.6-5.7-7-6.3-7.5-1.4-1.2-7.8-8.8-17.2-20.5-3.8-4.7-7.1-8.7-7.5-9-.3-.3-4.1-5-8.5-10.5-4.3-5.5-11.3-14.3-15.5-19.5-4.2-5.2-10.5-13.3-14-18-3.6-4.7-6.8-8.7-7.2-8.8-.5-.2-.8-1-.8-1.7s-.7-1.5-1.5-1.9c-.8-.3-1.5-1.2-1.5-2.1 0-.8-.4-1.5-.8-1.5s-3.2-3.4-6.2-7.7c-3-4.2-5.9-8.1-6.5-8.7-.5-.6-2.8-3.6-5-6.6-2.3-3-7.2-9.8-11.1-15-3.9-5.2-10.8-14.9-15.5-21.5C997.4 20.1 976.8 4.1 957.5 1c-6.8-1.1-9-1.1-16 .1zm27.6 196.4c27.9 5.7 39.8 12.1 93.9 50.9 26.9 19.3 74.9 55.6 95.4 72.1 5.4 4.4 11.5 9.3 13.5 10.8s4.5 3.6 5.6 4.5c1.1.9 4 3.2 6.3 5.1 2.4 1.9 5.3 4.2 6.5 5.2 1.2 1.1 5.6 4.7 9.7 8.1 16.8 13.9 32.5 27.1 33 27.7.3.4 3.2 2.9 6.4 5.6 3.3 2.8 6.9 5.9 8.1 7 1.1 1.1 8.3 7.4 16 14 7.7 6.6 15.2 13.1 16.6 14.5 1.4 1.4 6.6 6.1 11.5 10.5 16.9 15.1 71.5 66.7 87.9 83 33.9 33.7 88.9 92.3 113.7 121 1.4 1.6 8.7 10.1 16.2 18.8 17.3 20.1 50 60 61.8 75.4 2 2.6 7.7 10 12.5 16.3 9.1 11.8 15.8 20.9 28.9 38.7 6.9 9.6 19.4 30.5 19.4 32.8.1.5.9 2.8 2 5s1.9 5 2 6.1c0 1.2.6 3.9 1.4 6.1 2.3 6.5 1.9 31.1-.6 40.9-1.1 4.4-2.4 8.3-2.9 8.9-.5.5-.9 1.6-.9 2.5 0 2.2-8.2 17.7-13.9 26.5-7.6 11.6-43 58.2-66 86.9-32 39.9-66.8 80.2-106.5 123.1-40.9 44.2-132.6 134.5-136.7 134.5-.5 0-1.2-.7-1.5-1.5-.5-1.2-.9-1.3-2-.4-.8.7-1.6 1-1.7.8-.2-.2-2.1-3.8-4.2-7.9-19.4-37.6-52.5-75.3-91.5-104.2-24.4-18.1-45.6-30.1-79-44.8-9.1-4-18.4-8.1-20.7-9.2-7-3.2-32.6-11.8-35.3-11.8-9.6 0-39.2-12.1-49.5-20.2-.5-.5-5.8-4.1-11.6-8.2-15.1-10.6-32.9-27.5-42.8-40.6-1.4-1.9-2.8-3.7-3.1-4-.3-.3-1.7-2.4-3.2-4.7-2.1-3.2-2.4-4.2-1.3-4.7 2.5-.9 6.4-8 6.6-12.2.4-5.3-2.6-10.4-8.3-14-2.4-1.6-4.5-2.9-4.7-3.1-1-.7-.4-13.7.7-14.1.6-.2 2.2-1.2 3.6-2.3 3.6-2.9 3.6-8.9 0-11.8-1.4-1.1-3-2.1-3.5-2.3-1.3-.4-1.9-7.7-.8-10.5.4-1.2 1.7-2.4 2.8-2.8 2.6-.8 8-6.4 9.3-9.5.6-1.4 1-5.1 1-8.2 0-6.9-2.3-11.2-8.4-15.4-3.6-2.5-5.2-2.9-12.3-3.2-11.2-.5-17.3 2.6-21.6 11-4.4 8.6-1.4 18.2 7.9 24.7 3 2.1 3.2 2.6 3.1 7.9 0 5.5-.2 5.8-4.2 8.7-5.8 4.3-6 7.2-.8 12.1 3.8 3.4 4.1 4.1 4.1 9 0 5-.2 5.4-4.9 9.3-9.8 8.3-10.7 17.4-2.4 26.2 2.9 3.2 2.7 3.8-5 13.9-16.9 22-40.6 43-65.2 57.7-15.3 9.1-27 14.8-38 18.3-36.7 11.8-62 23.4-94.9 43.5-28.1 17.2-62.2 47.3-82.8 73-14.3 18-30 42.4-34.7 54.2-1.1 2.6-1.7 3.1-3 2.3-1-.5-2.3-.5-3.1 0-1.5.9-11.8.5-17.5-.7-1.6-.3-3.9-1.6-5-2.8-1.1-1.2-5.8-5.7-10.5-10-40.8-37.8-97.6-95-134.5-135.5-9.3-10.2-18.8-20.5-21.1-23-2.3-2.5-5.4-6.1-7-8-1.5-1.9-4.6-5.5-6.9-8-3.9-4.4-6.8-7.7-21.6-25.1-17.7-20.6-23.6-27.8-41.9-50.9-10.8-13.5-20.8-26.3-22.4-28.5-1.7-2.2-3.3-4.2-3.6-4.5-.5-.5-8.4-11-26.1-35-16-21.6-23.7-36.7-28-54.6-3.8-16.4-1.5-40.1 5.6-55 1.4-2.9 2.5-5.5 2.5-5.8 0-.8 10-17.7 12.2-20.6 1.1-1.4 8.7-11.7 17.1-23 16.7-22.5 24.9-33.3 28-36.7 1.1-1.2 2.5-3.1 3.1-4.2 1.8-3.2 28.7-36.6 43-53.5 2.2-2.7 4.9-5.8 5.9-7 1-1.1 2.8-3.2 4-4.6 1.2-1.4 4.9-5.7 8.2-9.5 3.3-3.9 6.2-7.2 6.5-7.5.3-.3 3.4-3.9 7-8s7-8 7.5-8.6c.6-.6 3.7-4.2 7-7.9 8.8-10 15-16.9 23.6-26 4.2-4.4 9.6-10.3 12-13 2.5-2.8 5.8-6.4 7.4-8.1 68.9-70.9 94.1-95.5 147-143.4 18.7-17 33-29.6 39.4-34.9 3.6-3 8.6-7.3 11.1-9.5 2.5-2.3 8.3-7.3 13-11.1 4.6-3.9 12-10.2 16.5-14 9.3-8 27.1-22.5 44-36 15.3-12.2 20.5-16.3 30.5-24 6.3-4.9 14.1-10.9 17.3-13.4 3.3-2.5 7.2-5.5 8.7-6.6 1.5-1.1 7.9-5.8 14.1-10.5 12.8-9.6 26.9-19.8 46.9-34 20.3-14.3 34.5-23.5 44.5-28.6 12.7-6.5 17.2-8 32.5-11.4 16.9-3.8 29.4-3.9 46.1-.5zm-13.2 697.6c4.5 4.4 4.4 9.8-.3 14.5-2.9 2.9-4.1 3.4-8.1 3.4s-5.2-.5-8.1-3.4c-4.7-4.7-4.8-10.1-.3-14.5 2.6-2.7 3.8-3.1 8.4-3.1 4.6 0 5.8.4 8.4 3.1zm434.8 365.9c.9 1.3 2.6 2 4.8 2 3.3 0 3.4.1 3.7 4.2.3 4.2.4 4.3 4.1 4.6 3.5.3 3.7.5 3.7 3.8 0 3 .3 3.4 2.5 3.4 1.9 0 2.5.5 2.5 2.3 0 2.8 1.7 4.7 4.2 4.7 1.1 0 1.8.7 1.8 1.8 0 2.3 1.9 4.2 4.2 4.2 1.1 0 1.8.7 1.8 1.8 0 2.4 4.9 6.9 8 7.4 1.9.2 2.6 1 2.8 3 .2 2 .9 2.8 2.2 2.8 1.3 0 2 .8 2.2 2.7.3 2.4.8 2.8 4.1 3.1 2.9.3 3.7.7 3.7 2.3 0 1.2.7 1.9 2 1.9 1.6 0 2 .7 2 3 0 2 .5 3 1.5 3 .9 0 1.5.9 1.5 2.5 0 2.1.5 2.5 3 2.5s3 .4 3 2.5.5 2.5 3 2.5c2.7 0 3 .3 3 3 0 2.8.3 3 3.6 3 3.4 0 3.5.1 3.2 3.2l-.3 3.3-9.5.6c-10.6.8-47.8 4.1-70 6.4-8 .8-22.1 2.1-31.5 3-9.3.8-21.3 2-26.5 2.6-10.2 1-59.4 5.6-75 6.9-18.4 1.5-66.6 6-70.5 6.5-2.2.3-9.6 1-16.5 1.5-6.9.6-13.6 1.3-14.9 1.6-1.3.3-7.8.9-14.5 1.4-18.2 1.5-30.9 2.6-54.6 5-11.8 1.1-24.2 2.3-27.5 2.6-3.3.2-10.5.9-16 1.4-15.3 1.6-18.3 1.8-28.7 2.6-8 .6-9.8 1-9.9 2.3-.5 10.7-9.6 22.7-23.2 30.5-7.5 4.3-19.4 7.8-26.4 7.8-3.5 0-6.3.4-6.3.9 0 1.9-11.5.9-18.9-1.6-17-5.8-29.9-16-33.9-26.8-1.2-3.2-2.2-7.1-2.2-8.7v-3h-7.7c-4.3 0-11.8-.5-16.8-1-4.9-.5-12.6-1.2-17-1.5-4.4-.3-9.6-.8-11.5-1.1-1.9-.3-8.4-1-14.5-1.4-10.4-.8-31.3-2.8-52.5-4.9-9.7-1-27.8-2.7-38.5-3.6-10.6-.9-27.8-2.5-37-3.5-9.3-1.1-57.5-5.5-75-7-9.5-.8-35.3-3.2-69.5-6.4-8.5-.8-23.1-2.2-32.5-3.1-9.3-.9-21-2-26-2.5-10.8-1.2-64-6-66.1-6-1.1 0-1.4-.9-1.2-3.3.3-2.8.7-3.2 3.6-3.5 2.6-.3 3.2-.8 3.2-2.7 0-1.8.6-2.4 2.8-2.7 1.9-.2 2.8-.9 3-2.5.2-1.5 1.1-2.3 3-2.5 2.1-.2 2.7-.8 2.7-2.8 0-1.5.7-2.6 1.8-2.8 1-.2 1.7-1.3 1.7-2.8 0-1.7.5-2.4 2-2.4s2-.7 2-2.4c0-2.1.5-2.5 3.7-2.8 3.3-.3 3.8-.6 3.8-2.8 0-1.8.6-2.6 2.2-2.8 1.5-.2 2.3-1.1 2.5-3 .2-2.2.7-2.6 2.7-2.4 2.9.4 7.1-3.3 7.1-6.5 0-1.7.6-2.3 2.3-2.3 2.7 0 4.7-1.7 4.7-4 0-.8 1-2 2.2-2.5 1.2-.6 2.5-2.1 2.8-3.5.4-1.5 1.5-2.6 3-3 1.9-.5 2.4-1.2 2.4-4 .1-3.3.3-3.5 4.1-4s4-.7 4.3-4.3c.3-3.5.5-3.7 3.8-3.7 2.7 0 3.7-.5 4.6-2.5.9-2.1 1.7-2.5 3.7-2 2.3.4 9.4 1.1 46.6 4.5 5.5.5 24.9 2.3 43 4 18.2 1.7 37.7 3.5 43.5 4 10.8.9 42.5 3.8 70 6.4 8.5.8 21.1 2 28 2.6 6.9.6 16.8 1.7 22 2.5 5.2.8 11.5 1.6 14 1.9 5.4.6 20.3 3.4 24.5 4.6 1.7.5 5 1.4 7.5 2 9.1 2.4 33.7 11 42 14.7 10.6 4.8 29.5 14.8 33.7 17.9 1.7 1.3 3.5 2.4 3.9 2.4 1 0 15.1 10.7 22.3 16.9 12.7 11 24.4 28.8 25.8 39.1.4 2.7 1.4 4.7 3.1 6 2.6 2.1 4.8 2.6 5.4 1.2.2-.5 2.1-1.5 4.3-2.4 3.4-1.3 4-2.1 4.2-4.8.9-10.6 8.2-22.8 21.5-35.8 14.3-14 28.5-24 49.3-34.6 19.8-10.1 27.1-13.1 51-20.5 6.5-2 28.4-7 35.5-8 10.1-1.5 22.4-3.1 28.5-3.7 2.8-.3 12-1.1 20.5-2 26.5-2.5 59-5.5 70.5-6.4 6.1-.5 25.6-2.3 43.5-4 17.9-1.7 37.5-3.5 43.5-4 6.1-.5 12.4-1.2 14-1.4 1.7-.3 7.1-.8 12-1.2 5-.4 13.7-1.2 19.5-1.8 17.5-1.9 20.2-1.8 21.7.4z"/><path d="M897.8 232.6c-3.2 1.7-5.8 6.2-5.8 10 0 1.9 1.3 3.9 4 6.5 4.4 4.2 5.1 7.2 2 9.1-1.1.7-2 2.2-2 3.4 0 1.1.9 2.9 2 3.9 3.1 2.8 2.5 6.1-2 10.4-5.2 4.9-5.1 7.3.2 12.4l4.2 4-2.4 1.6c-5.2 3.3-10.8 9.2-13.6 14.3-2.7 4.9-2.9 6.1-2.9 15.3 0 5.8.5 10.9 1.2 12.1.9 1.5.9 2.4.1 3.2-.7.7.2 2.5 3.3 6.2 4.3 5.1 4.4 5.5 4.8 13.1.4 10.9-.3 14-4.8 19-2.1 2.4-4.8 6.3-6 8.7-2.1 4-2.5 4.3-5.9 4.1-4.7-.2-7.2.8-7.2 3.1 0 1.1-.4 2.2-1 2.5-.6.4-1 6.5-1 15.1v14.5l6 5.7 6 5.8V517.9l-9 .3-9 .3v-6.1c0-3.3-.5-6.5-1.2-7.2-.7-.7-4.3-1.2-9-1.2H841v28c0 26.9-.1 28-2 29.2-1.1.7-2 2.1-2 3 0 1 .9 2.3 2 3 1.1.7 2 1.7 2 2.1 0 1.1 14 18.6 16.4 20.6 1.4 1.2 1.6 6.3 1.6 49.7 0 31.1-.4 48.5-1 48.9-.6.4-1 12.5-1 33.1V754h-37.1l.2-5.9c.3-8.1-.8-9.3-8.5-8.9l-6.1.3-.3 26.9-.2 26.8 3.5 4.9c1.9 2.7 3.5 5.1 3.5 5.4 0 .7 8.6 13.8 10.4 15.7.9 1 3 1.8 4.8 1.8 1.8 0 8 .6 13.8 1.4 21.6 3 48.4 4.1 96 4.1 46.7-.1 72-1.1 95.5-4 42.1-5.2 39.4-4.6 41.5-8 1.1-1.6 4.7-7.2 8-12.3l6-9.4-.2-26.6-.3-26.7-5.9-.3c-7.9-.4-9.6 1.1-9.6 9v5.8h-35.7l-.6-49.7c-1.1-79.6-.9-114.1.6-115 2.1-1.3 19.7-24 19.7-25.3 0-.7-.7-1.8-1.5-2.4-1.2-.9-1.5-5.7-1.6-29.4l-.1-28.2h-8.2c-5 0-8.7.5-9.4 1.2-.7.7-1.2 3.9-1.2 7.2v6.1l-9-.3-9-.3V436.6l6-5.7 6-5.6v-14.2c0-8.7-.4-15-1.2-16.4-.6-1.2-1.4-2.9-1.8-3.7-.5-1.1-2-1.4-5.3-1.2-4.6.4-4.6.4-7-4.5-1.4-2.6-3.5-5.7-4.7-6.8-2.9-2.6-4.5-5.8-6-12.3-1.8-7.6.6-16.4 6.1-22.3 3.1-3.4 3.6-4.5 2.5-5.1-1.2-.7-1.2-1.4.1-5 1.8-5.3 2-15.2.3-20.4-2.5-7.8-6.7-12.9-16.4-19.7-1.8-1.3-1.8-1.5-.2-2.8 5.1-4.2 5.6-5 5.6-8.9 0-3.9-2.6-8-5-8-.5 0-1-1.8-1-4 0-2.9.5-4.2 2-5 1.1-.6 2-2 2-3 0-1.1-.9-2.5-2-3.2-2.7-1.7-2.8-7.4-.1-8.3 1-.3 2.6-2.1 3.6-4 2.6-4.7 1.2-10.1-3.4-13.2-11.6-7.8-25.6 7.2-15 16.1 3.5 3 3.9 7.5.9 9.4-1.1.7-2 2.1-2 3.2 0 1 .9 2.4 2 3 1.5.8 2 2.1 2 4.8 0 3.1-.6 4.3-3 6-2.4 1.8-3 3-3 6.1 0 3.1.7 4.4 3.5 7l3.6 3.2-4.9 3.8c-10.5 8.4-14.2 15.3-14.2 26.8 0 4.2.5 9.3 1.2 11.5.9 3.2.9 4.1-.1 4.8-1 .6-.3 1.8 2.6 4.8 4.5 4.6 6.3 9.6 6.3 17.2s-1.7 12.3-6.6 18c-2.3 2.8-4.6 5.9-4.9 7.1-.6 1.9-.8 1.9-2.5.4-1.3-1.2-3.3-1.5-7.1-1.3l-5.4.3-.3 18.6-.2 18.7 5 4.3 5 4.4V518h-25v-85.6l5-4.9 5-4.9V385h-5.7c-3.6 0-6.2.5-7.3 1.5-1.5 1.4-1.8 1.2-3.5-2.4-.9-2.2-2.3-4.2-3-4.5-.8-.3-2.6-2.6-4.2-5.3-2.5-4.3-2.8-5.8-2.8-13.3 0-9.4 1.2-12.5 6.6-18 2.4-2.4 2.9-3.4 1.9-4-1-.6-.9-1.7.4-5.6 3.1-9.1 1.4-20.6-4.2-28.4-3.1-4.4-9-9.8-11.9-11-2.2-.9-2.3-4-.2-4 2.3 0 4.9-4.2 4.9-8 0-3.7-2.8-8-5.2-8-.4 0-.8-1.7-.8-3.8 0-2.6.6-4.1 2-5 1.1-.7 2-2 2-3.1 0-1-.9-2.6-2-3.6-2.9-2.6-2.5-6.2 1-9.2 2.5-2.1 3-3.2 3-7 0-2.4-.5-5.3-1-6.4-2.4-4.5-10.9-6.2-16.2-3.3zm9.6 2c2.1 2 2 5.3-.1 7.6-3.1 3.4-8.5 1-8.5-3.8 0-4.7 5.4-7.1 8.6-3.8zm84.9-.4c2.6 1.9 2.9 5.6.7 7.8-2.4 2.4-4.8 2.5-7.2.3-5-4.5 1.1-12 6.5-8.1zm-80.5 204.1l2.2 2V512h-17v-36.9c0-28.3.3-37.1 1.3-37.9 3.1-2.6 10-2.1 13.5 1.1zm82-1.7c.9.3 1.2 8.7 1.2 37.9V512h-15v-36.3c0-33.4.1-36.5 1.8-37.9 2.7-2.5 6.6-2.9 12-1.2z"/><path d="M1081 684c0 .5 5 9.8 11 20.5 6.1 10.7 11 19.9 11 20.4 0 .4.8 1.5 1.8 2.4 1.9 1.8.8 1.9 29.7-3.5 15.9-3 23.5-2.9 36 .6 39.1 11 58.9 21.2 66.3 34.3.6 1.3 1.2 4.7 1.2 7.6 0 5.9-2.3 10-9.1 16.3-8.4 7.8-29.7 17.1-58.4 25.7-6.6 2-21.3 5.2-35 7.6-10.4 1.8-15 2.5-37 5.1-10.4 1.3-13.2 1.7-20 3-5.6 1.1-27.2 4.1-29.5 4.2-.8 0-4 .4-7 .9-12.6 2-46.4 4.2-74.9 4.8-51 1-93.5-.3-127.6-4-5.5-.6-11.3-1.2-13-1.4-3.4-.3-14.8-1.9-28.5-4.1-11.9-1.9-11.3-1.8-18.5-3.3-3.3-.7-8.9-1.9-12.5-2.7-7.9-1.6-32.3-8.5-40.4-11.3-9.4-3.3-25.8-11.9-31.7-16.6-10.1-8-13.8-16.4-10.9-25 2.2-6.7 12.2-15.5 24.6-21.7 6-3 11.8-5.7 12.9-6.1 1.1-.3 6.6-2.1 12.2-4.1 10.7-3.7 24.6-7.4 40.3-10.6 5.2-1.1 11.5-2.4 14-3 5.5-1.2 15.5-2.7 27.5-4.1 10.3-1.1 11.6-1.4 9.5-2.2-.8-.4-8.5-3.1-17-6.2-30.6-11.2-36.7-13.4-50.5-18.5-12-4.4-14.7-5-18.9-4.5-2.7.3-5.1.7-5.5.9-.3.2-3.1.7-6.1 1-5 .6-14.3 2.2-34.5 6.1-3.8.7-10.1 2-14 3-3.8.9-8.1 1.9-9.5 2.1-4.2.8-37.3 10.3-41 11.9-1.9.7-7.3 2.8-12 4.5-12.3 4.6-24.2 10.5-34 16.8-4.7 3-8.7 5.8-9 6.1-.3.4-3.4 2.9-7 5.6-14.5 11-18.8 18.3-17.8 31 1.1 13 11 23.2 34.6 35.7 17.6 9.4 52.9 20.7 84.2 27.2 4.1.8 8.9 1.8 10.5 2.1 7.3 1.5 42.6 7.4 48 8 3.3.3 11.2 1.3 17.5 2 6.3.8 14.7 1.7 18.5 2 3.9.3 8.8.8 11 1 2.2.2 7.8.7 12.5 1 4.7.3 14.6 1 22 1.5 45.4 3.2 53.5 3.5 112.5 3.5 59.1 0 71.7-.4 112-3.6 13.9-1 21.2-1.7 26-2.3 1.7-.3 5.7-.7 9-1.1 17.6-1.8 41.3-4.6 43.1-5 1.2-.2 3.9-.7 6-1 28.2-4 39.7-6.1 67.4-12.7 48.5-11.5 82.8-26.4 99.5-43.3 8.6-8.6 10.5-12.8 10.5-22.9 0-7.9-.2-8.6-3.8-14.2-6.7-10.3-18.8-19.4-37.7-28.4-15.2-7.1-16.7-7.8-19.5-8.5-1.4-.4-3.8-1.3-5.5-2-1.6-.7-4.1-1.7-5.5-2.2-2.4-1-2.4-1.1 1.5-1.7 7.5-1.3 10-2.2 10-3.6 0-1.5-6.5-2.8-24.5-4.9-4.7-.6-9.9-1.3-11.7-1.6-1.8-.3-4.9-.7-7-.9-3.3-.3-20.9-2.6-42.3-5.6-15.1-2.2-36.9-5-42-5.5-3-.4-6.2-.8-7.1-1.1-1.6-.4-3.2-.7-13.1-1.9-2.2-.3-3.8-.1-3.8.5zM1052 859.7c-2.5.1-8.8.8-14 1.3-34.9 3.8-151.4 5.6-190.5 3-8.2-.5-15.6-1-16.2-1-1 0-1.3 14.1-1.3 67.1v67.2l-5.2 5.1-5.3 5.1.3 36.2c.2 34.7.3 36.3 2.1 36.3 2.5 0 22.2-9.8 34.1-17 21.4-12.9 45.8-34.2 60.3-52.7 6.1-7.7 6.3-8.3 4.5-10.1-3.6-3.6-5-17.4-2.3-23.7.8-2 3.7-5.7 6.5-8.4l5.2-5-4.1-5.1c-3.7-4.7-4.1-5.7-4.1-10.8 0-5.3.2-5.7 4.6-10l4.6-4.4-5-5.1c-2.8-2.9-5.8-6.9-6.7-8.9-2.4-5.8-2-16.3.9-22.4 7.9-16.9 34.4-20.8 48.6-7.1 5.9 5.8 8 10.6 8 19.2 0 9-2.1 13.6-9.1 19.9l-5.3 4.8 2.7 2c3.7 2.7 5.7 6.9 5.7 12 0 4.7-2.7 10-5.9 11.8-3.4 1.8-2.6 5.3 1.7 8.1 2 1.3 5.2 4.7 7 7.4 3.2 4.7 3.4 5.4 3 12.2-.3 5.6-.9 7.9-2.7 10.3-2.9 3.9-2.4 5 6.5 15.4 14.3 16.7 28.6 29.3 46.8 41 11.3 7.3 24.8 14.6 28.9 15.6 11.3 3 16 4 16.3 3.7.2-.1.4-15.1.4-33.2l.2-33-5.1-4.7-5.1-4.7V859l-3.2.2c-1.8.1-5.3.3-7.8.5zM1356 1272c-6.3 1.1-14.4 2.4-18 3-9 1.4-73.1 11-80.5 12-3.3.4-8.9 1.3-12.5 1.9-8.4 1.3-34.7 5.3-57 8.6-9.6 1.4-21.5 3.2-26.5 4-12.2 2-60.4 9.2-83.4 12.6-3.6.5-6.9 1.3-7.5 1.8-.6.5-4.2 1.4-8.1 2-15.3 2.6-32.4 8.5-49.8 17.2-13.1 6.6-17.8 9.9-26.5 18.6-11.1 11.2-17.8 22.8-19.5 33.6-.9 5.7 1.5 3.2 3.2-3.2 6.6-25.9 53.7-54.1 102-61.1 4.1-.6 8.1-1.6 8.8-2.2.7-.6 5.3-1.7 10.1-2.4 11.6-1.8 37.2-5.7 61.7-9.4 11-1.6 24.5-3.7 30-4.5 9.9-1.6 17.4-2.7 56.5-8.5 31-4.6 31.5-4.7 46-7 7.4-1.1 16.4-2.5 20-3 6.5-1 27.5-4.1 53.5-8 7.7-1.2 14.3-2.5 14.7-2.8.4-.4.5-1.7.2-3-.8-2.7-1.8-2.7-17.4-.2zM529.7 1274.2c-.4 1.2-.4 2.4-.2 2.6.2.3 4.6 1.1 9.7 1.8 5.1.8 17 2.6 26.3 4 9.4 1.4 19.7 2.9 23 3.4 3.3.4 13.4 2 22.5 3.4 22.8 3.5 66.8 10.2 83 12.6 7.4 1.1 21.2 3.1 30.5 4.5 9.4 1.4 19.5 2.9 22.5 3.4 3 .6 8.7 1.4 12.5 2 36.8 5.5 60.6 9.2 61.9 9.7.9.3 1.6 1 1.6 1.5s1.6.9 3.6.9c6.4 0 28 4.9 39.1 8.8 19.3 7 34.6 15.4 48.3 26.8 10.8 9 15.8 16 19.1 26.4 2.3 7.7 4.1 7.7 2.3 0-2.2-9.5-7.9-19-18-29.9-13.8-14.9-49.2-31.7-76.2-36.2-3.7-.6-7.4-1.5-8.3-1.9-1.4-.8-10.1-2.3-24.4-4.5-2.2-.3-13-1.9-24-3.6-11-1.7-27.4-4.1-36.5-5.5-9.1-1.3-17.4-2.6-18.6-2.9-1.1-.2-12.8-2-26-3.9-13.1-1.9-32.9-4.9-43.9-6.6-11-1.6-27.9-4.1-37.5-5.5-9.6-1.5-18.2-2.8-19-3-.8-.3-4-.7-7-1-3-.4-6.2-.8-7-1-.8-.2-9.1-1.6-18.5-3-9.3-1.4-21.3-3.2-26.5-4-12.7-2-13.7-1.9-14.3.7z"/><path d="M1380.5 1291.1c-5.5 1.1-16.3 3-24 4.4-19.5 3.4-30.2 5.3-43 7.6-6 1.1-13.5 2.4-16.5 2.9s-16.7 2.9-30.5 5.4c-13.7 2.5-31.7 5.7-40 7.1-8.2 1.5-21.3 3.8-29 5.1-7.7 1.4-16.2 2.9-19 3.4-2.7.5-9 1.6-14 2.5-20.9 3.7-43.4 7.7-48.5 8.5-3 .5-13.1 2.3-22.5 4-9.3 1.7-19.7 3.5-23 4-3.3.6-13.4 2.3-22.5 4-9.1 1.6-22.2 4-29.2 5.2-12.1 2.1-12.8 2.3-12.8 4.5 0 1.3.6 2.6 1.3 2.9.8.3 8.1-.7 16.3-2.1 8.2-1.4 22.3-3.9 31.4-5.5 25.4-4.4 38.8-6.8 59.5-10.5 10.5-1.9 25.8-4.6 34-6 38.4-6.8 114.5-20.2 136-24.1 4.4-.8 10.5-1.9 13.5-2.4 9.3-1.7 37.7-6.7 53.5-9.4 14-2.4 22.6-4 36.8-6.7 3.1-.6 5.7-1.2 5.7-1.4 0-1.3-2.1-5.5-2.7-5.4-.5.1-5.3 1-10.8 2zM510.1 1293.2c-1.1 3-.8 3.4 3.6 4.2 2.1.3 11.5 2 20.8 3.7 9.4 1.6 19.5 3.4 22.5 3.9s10.5 1.8 16.5 2.9c6.1 1.1 16.4 2.9 23 4.1 6.6 1.2 15.8 2.8 20.5 3.6 4.7.8 14.6 2.6 22 3.9 19.5 3.4 34.5 6.1 51 9 8 1.4 19.7 3.5 26 4.6 6.3 1.1 13.8 2.4 16.5 2.9 2.8.5 6.6 1.2 8.5 1.5 5.5.9 58.6 10.3 67.5 11.9 12.4 2.3 34.1 6.2 60.5 10.7 6.3 1.1 14.6 2.6 18.4 3.4 3.8.8 7.3 1.2 7.7 1 1.1-.7 1.8-4.4.9-5-.4-.2-8.5-1.8-18.1-3.5-9.6-1.7-23.5-4.2-30.9-5.5-7.4-1.3-20.2-3.5-28.5-5-8.2-1.4-19.7-3.5-25.5-4.5-12.3-2.3-37.1-6.7-45-8-3-.5-10.4-1.8-16.5-2.9-6-1.1-17.3-3.1-25-4.5-17.4-3-59.3-10.4-66-11.6-2.7-.5-12.9-2.3-22.5-4-9.6-1.7-23.6-4.1-31-5.5-7.4-1.3-18.9-3.3-25.5-4.4-37.2-6.6-46.2-8.2-48.3-8.6-1.7-.4-2.5 0-3.1 1.7zM1405.5 1325c-3.3.4-9.8 1.3-14.5 1.9-4.7.5-17.7 2.2-29 3.6s-23.9 2.9-28 3.5c-7.1 1-23.3 3-69 8.6-28.8 3.6-31.9 3.9-56 6.8-11.8 1.4-24.4 3-28 3.6-3.6.5-16.2 2.1-28 3.6-11.8 1.4-22.8 2.7-24.5 2.9-1.6.2-12.4 1.6-24 3-11.5 1.3-24.1 2.9-28 3.5-6.4.9-37.9 4.8-58 7.1-19.4 2.3-19 2.2-18.7 4.9.2 1.4.5 2.6.7 2.8.3.3 33.9-3.6 37-4.3 1.8-.5 8.8-1.3 36.5-4.6 4.7-.5 11.9-1.4 16-1.9 37.1-4.4 50.5-6.1 56.5-7 3.9-.5 12.9-1.7 20-2.5 7.2-.9 17.7-2.2 23.5-3 5.8-.7 20.4-2.5 32.5-4 12.1-1.4 26.7-3.2 32.5-4 5.8-.8 16.8-2.1 24.5-3 7.7-.9 16.9-2 20.5-2.5 3.6-.6 16-2.2 27.5-3.5 11.6-1.4 26-3.2 32-4 6.1-.7 17.1-2.1 24.5-3 29.1-3.4 36.1-4.7 35.6-6.2-.4-.8-.6-1.9-.6-2.4 0-1-4.7-1-13.5.1zM483.1 1327.2c-1.1 3-.2 3.9 4.5 4.4 2.2.2 38.3 4.7 80.4 9.9 42.1 5.2 100.4 12.4 129.5 16 29.2 3.5 56.2 6.9 60 7.5 6.8 1 40.8 5.1 57 7 4.4.5 15.2 1.8 24 3 19.5 2.5 27.1 3.4 44.5 5.5 7.4.8 14.7 1.8 16.2 2.1 2.4.5 3 .1 3.8-2.2.6-1.5.8-2.9.6-3.1-.3-.3-5.8-1.1-12.3-1.9-22.9-2.7-28.8-3.4-31.8-3.9-1.6-.3-12.4-1.6-24-3-11.5-1.4-22.6-2.8-24.5-3-1.9-.3-38.1-4.8-80.5-10-42.3-5.2-80.4-9.9-84.5-10.5-4.1-.6-18.7-2.4-32.5-4-13.7-1.6-28.4-3.4-32.5-4-4.1-.6-16.5-2.1-27.5-3.5-42.8-5.2-53.3-6.5-60.3-7.5-9.5-1.3-9.1-1.4-10.1 1.2zM272 1575.5v97.5h44v-195h-44v97.5zM354 1575.5v97.5h121v-35h-76.9l-.3-23.6c-.2-13-.1-23.8.1-24 .2-.2 13.9-.4 30.3-.4H458v-33l-30-.2-30.1-.3v-45l38.6-.3 38.5-.2v-33H354v97.5zM497 1575.5v97.5h121v-35h-78l.2-23.8.3-23.7 30.3-.3 30.2-.2v-33l-30.2-.2-30.3-.3v-45l38.8-.3 38.7-.2v-33H497v97.5zM639 1575.5v97.5h121v-35h-77v-48h60v-33h-60v-46h77v-33H639v97.5zM899.1 1491.7c-2.3 7.6-6.6 21.7-9.6 31.3-2.9 9.6-14.4 47-25.4 83.1-11.1 36.1-20.1 65.9-20.1 66.3 0 .3 9 .6 19.9.6h19.9l4.8-20 4.8-20h56.3l4.8 20 4.9 20H1139v-35h-42.5c-23.4 0-42.5-.2-42.5-.5s18.2-28.8 40.3-63.3c22.2-34.5 40.9-63.7 41.5-64.9.8-1.4 1.2-7.6 1.2-16.7V1478h-128v35l38.5.2 38.5.3-42 65-42.1 65 .4 9.7c.1 5.4 0 9.8-.4 9.8-.3 0-2-4.8-3.7-10.8-1.7-5.9-7.4-25.1-12.5-42.7s-15.8-54.4-23.8-81.7l-14.4-49.8h-44.2l-4.2 13.7zm32.3 68c5.3 21 9.6 38.7 9.6 39.2 0 .7-6.5 1.1-19.5 1.1-10.7 0-19.5-.3-19.5-.6s2-8.8 4.4-18.8c2.5-9.9 6.5-26.9 9.1-37.6 5-21.1 5.4-22.5 5.9-21.9.2.2 4.7 17.6 10 38.6zM1159 1575.5v97.5h44v-80h48v80h43v-195h-43v79l-24-.2-24.1-.3.1-39.3V1478h-44v97.5zM1366.7 1478.7c-.3.5-4.1 12.9-8.7 27.8-15.8 52-49.9 163.5-50.5 165.3-.4 1 3.8 1.2 19.7 1l20.2-.3 4.8-19.5c2.6-10.7 4.7-19.6 4.8-19.8 0-.1 12.7-.1 28.2 0l28.1.3 3.9 16c2.1 8.8 4.3 17.7 4.9 19.7l1 3.8h44.7l-2.4-8.3c-2.2-7.2-11.9-40.5-20.4-69.7-8.6-29.3-32.4-111-33.2-113.8l-.9-3.2H1389c-12 0-22.1.3-22.3.7zm28.5 82c5.3 21 9.3 38.5 9 38.8-.3.3-9 .5-19.4.5-16.4 0-18.8-.2-18.8-1.6 0-.8 4.1-18.3 9-38.8 5-20.6 9-37.7 9-38.2 0-4.2 3.2 6.9 11.2 39.3zM1485 1575.5v97.5h44v-77H1550.7l9.3 26.7c5 14.8 11 32.1 13.2 38.5l4 11.8h24c13.1 0 23.7-.3 23.5-.8-1.2-2-35.7-83.2-35.7-83.9 0-.4 2.3-2.3 5.1-4.2 10-6.8 17.5-17.9 20.4-30.3 1.9-8.2 1.9-26.5 0-34.7-5.2-21.7-21.8-37.3-42.8-40.1-4.3-.5-25.6-1-47.3-1H1485v97.5zm77.7-62.9c3.6 2.3 5.5 4.4 7.8 8.9 2.7 5.3 3 6.8 3 14.9-.1 10.5-1.5 15.3-5.8 20.3-5.4 6.1-9.3 7.3-24.9 7.3H1529v-55.3l14.4.5c13.9.4 14.6.5 19.3 3.4zM774.7 1583.7c-.4.3-.7 7.3-.7 15.5v14.8h60.1l-.3-15.3-.3-15.2-29.1-.3c-16-.1-29.3.1-29.7.5zM265.4 1714.9c-.2.2-.4 3.7-.4 7.8v7.3h1370.1l-.3-7.5-.3-7.5-684.3-.3c-376.4-.1-684.6 0-684.8.2zM306 1769.1c-10.8 2.1-22.7 11.6-27.2 21.6-3.3 7.3-3.7 21.9-.8 29.5 4.5 12 12.7 18.1 37 27.4 11 4.2 14.4 6.4 16.5 10.4 6.8 13.2-9.6 24.7-24.9 17.5-4.1-2-9.3-8.9-10.3-13.8-.3-1.5-1.2-2.7-2-2.7-1.5 0-22.2 5.8-23.5 6.6-.4.3.3 2.8 1.5 5.7 8.1 20.1 21.1 28.7 43 28.7 12.1 0 20.1-1.8 27.6-6.3 10.3-6.2 16.5-15.5 18.4-27.7 2-12.8-1.8-24.4-10.4-32.5-5.3-4.9-10.5-7.7-24.9-13.5-16.7-6.7-20.8-9.4-22.5-14.8-.9-3 1-8.4 4-11.2 2.6-2.4 10.2-3.8 14.9-2.6 3.8.9 8.5 5.4 11.1 10.6l2.4 4.8 10.8-4c5.9-2.2 11.2-4.4 11.7-4.9 1.5-1.4-3.4-11.7-8.1-16.9-9.4-10.5-27.1-15.3-44.3-11.9zM1460 1769c-17.1 3.6-29.2 17-35.2 38.7-1.8 6.7-2.1 10.5-2.1 26.3s.3 19.6 2.1 26.5c4.9 18.1 13.5 29.9 25.9 35.8 6.6 3.1 7.2 3.2 20.3 3.2 12.5 0 13.9-.2 19.1-2.6 13.8-6.5 23-19.9 25.8-37.8.4-2.9.5-5.3.2-5.5-.3-.2-6.2-.7-13.1-1l-12.6-.7-1.3 6.2c-3.4 16.5-13 23.5-24.5 17.9-8.1-3.9-11.2-12.2-12.2-33-.6-12.4.6-30.1 2.6-37.1 2.5-8.9 9.4-14.9 17-14.9 9.3 0 15.1 6.9 17.2 20.5l1.2 7.8 8-.7c4.5-.3 10.2-.6 12.9-.6 4.4 0 4.7-.2 4.7-2.5 0-5.6-3.3-18.4-6.6-25.1-4.2-8.9-11.9-16.3-20.2-19.4-6.5-2.5-21.8-3.5-29.2-2zM369 1782v12h26v104h29v-103.9l13.1-.3 13.1-.3-.1-11.5v-11.5l-40.5-.3-40.6-.2v12zM460.7 1770.7c-1.1 1-.8 73.2.3 87.3.5 6.8 1.6 14.7 2.5 17.5 3 10.5 10.1 17.9 21 22.1 7 2.7 32.5 2.8 40 .1 6.2-2.1 13.8-7.9 17.6-13.2 5.9-8.4 6.2-11.2 6.7-65.3l.3-49.2h-24l-.3 48.2c-.3 46.4-.4 48.4-2.3 51.8-3 5.2-9.6 8.3-16.3 7.6-7.3-.7-11.2-3.2-14.2-9.1l-2.5-5-.3-46.8-.3-46.7h-13.8c-7.6 0-14.1.3-14.4.7zM574 1833.9v64.1h23.8c26 0 32.7-.9 41.4-5.7 10.6-5.8 19.5-19.8 23.4-36.8 2.7-11.6 2.5-36-.4-46.6-4-15.1-11.5-26-21.3-31.3-10.3-5.7-17-6.8-43.1-7.3l-23.8-.5v64.1zm46.6-38.8c4.7 2.2 8.5 7.1 10.9 13.9 3.7 10.3 3.5 39.4-.3 50.2-4.2 12-9.3 15.9-21.3 16.6l-7.9.5v-84.6l7.2.7c4 .4 9.2 1.6 11.4 2.7zM683.7 1770.7c-.4.3-.7 29.1-.7 64v63.3h80v-22h-51v-32h39.5l-.2-10.7-.2-10.8-19.5-.3-19.6-.2v-30h51v-22h-39.3c-21.7 0-39.7.3-40 .7zM776 1834v64h22v-45c0-24.8.3-45 .8-45 .4 0 9.3 20.2 19.8 44.8l19.1 44.7 13.1.3 13.2.3v-128.2l-11 .3-11.1.3.1 38.7c0 21.4-.3 38.8-.7 38.8-.5 0-8.1-17.5-17-38.8l-16.2-38.7-16-.3-16.1-.2v64zM872.4 1771.3c-.2.7-.3 6-.2 11.8l.3 10.4 12.8.3 12.7.3V1898h29v-104h27v-24h-40.5c-32.6 0-40.7.3-41.1 1.3zM1000 1834v64h28.8c30.7 0 37.7-.7 45.2-4.5 11.9-6 18.8-21.7 16.1-36.7-1.9-10.8-6.1-17-14.8-22-2.9-1.6-5.3-3.2-5.3-3.4 0-.2 1.7-1.2 3.8-2.3 8.5-4.3 13.2-13.5 13.2-25.5 0-12.9-6.1-24.7-15-29.3-6.7-3.4-15.7-4.3-45.2-4.3H1000v64zm50.7-41.3c6.8 3.2 9.2 13.2 5.1 21.3-3.1 6.1-6.2 7.4-18 7.8l-9.8.4V1791h9.6c6.9 0 10.6.5 13.1 1.7zm3 52.2c6.3 2.9 8.9 9.7 7.2 18.8-1.8 9.3-7.5 12.3-23.3 12.3h-9.6v-33h10.8c8.3 0 11.6.5 14.9 1.9zM1110 1833.9v64.1h29.1l-.1-25.3-.1-25.2 6.9-.3 6.9-.3 8.8 25.6 8.8 25.5h56.5l2.1-9.3c1.2-5.1 2.6-11 3.2-13l1-3.7h36.7l3.2 13 3.2 13h29l-.7-2.7c-.3-1.6-8.6-30.3-18.3-63.8l-17.8-61-14.2-.3c-14-.3-14.2-.2-15.2 2-.5 1.3-9.1 29.1-19 61.8-10 32.7-18.3 60.2-18.6 61-.4 1.2-20.7-44-23-51.2-.3-1.1.9-2.6 3.8-4.7 9.5-6.8 14.5-19.1 13.5-33.6-1-15.5-7.3-25.7-19.5-31.7l-6.7-3.3-29.7-.3-29.8-.4v64.1zm49.3-42c7.5 2.9 11.1 16.8 6.9 26.5-2.9 6.5-8.1 8.8-19.2 8.4l-8.1-.3-.2-17.8-.2-17.7h9.2c5 0 10.3.4 11.6.9zm98.7 32.4c3.3 13.1 6 24.3 6 24.8s-5.6.9-12.5.9-12.5-.4-12.5-.9c0-1.2 10.9-47.1 11.7-49.1.7-2 .4-3 7.3 24.3zM1316 1834v64h22l.2-45.7.3-45.7 19.5 45.7 19.5 45.7h25.5v-128h-22v38.7c0 22.2-.4 38.3-.9 37.7-.5-.5-8-17.9-16.7-38.7l-15.8-37.7H1316v64zM1533 1834v64h29v-52h31v52h29v-128h-29v52h-31v-52h-29v64z"/></svg>